<?xml version="1.0" standalone="no"?>
<!DOCTYPE svg PUBLIC "-//W3C//DTD SVG 1.1//EN" "http://www.w3.org/Graphics/SVG/1.1/DTD/svg11.dtd">
<svg xmlns="http://www.w3.org/2000/svg" xmlns:xlink="http://www.w3.org/1999/xlink" width="268.5" zoomAndPan="magnify" viewBox="0 0 268.5 383.999986" height="384" preserveAspectRatio="xMidYMid meet" version="1.0"><defs><g/></defs><path fill="#000000" d="M 225.78125 263.847656 L 234.132812 263.847656 C 235.089844 263.847656 236.042969 263.800781 236.996094 263.707031 C 237.949219 263.613281 238.894531 263.472656 239.835938 263.289062 C 240.773438 263.101562 241.699219 262.867188 242.617188 262.589844 C 243.53125 262.3125 244.433594 261.988281 245.316406 261.625 C 246.203125 261.257812 247.066406 260.847656 247.910156 260.398438 C 248.753906 259.945312 249.574219 259.453125 250.371094 258.921875 C 251.167969 258.390625 251.933594 257.820312 252.675781 257.214844 C 253.414062 256.605469 254.125 255.964844 254.800781 255.289062 C 255.476562 254.609375 256.121094 253.902344 256.726562 253.160156 C 257.335938 252.421875 257.902344 251.652344 258.4375 250.859375 C 258.96875 250.0625 259.460938 249.242188 259.910156 248.398438 C 260.363281 247.554688 260.769531 246.6875 261.136719 245.804688 C 261.503906 244.917969 261.824219 244.019531 262.101562 243.101562 C 262.382812 242.1875 262.613281 241.257812 262.800781 240.320312 C 262.988281 239.382812 263.128906 238.4375 263.222656 237.484375 C 263.316406 236.53125 263.363281 235.574219 263.363281 234.617188 L 263.363281 105.148438 C 263.363281 101.203125 261.503906 97.488281 258.351562 95.125 L 141.429688 7.421875 C 140.890625 7.015625 140.320312 6.65625 139.726562 6.34375 C 139.128906 6.035156 138.511719 5.769531 137.875 5.558594 C 137.234375 5.34375 136.582031 5.183594 135.917969 5.078125 C 135.253906 4.96875 134.585938 4.914062 133.910156 4.914062 C 133.238281 4.914062 132.570312 4.96875 131.90625 5.078125 C 131.242188 5.183594 130.589844 5.34375 129.949219 5.558594 C 129.3125 5.769531 128.695312 6.035156 128.097656 6.34375 C 127.5 6.65625 126.933594 7.015625 126.394531 7.421875 L 9.472656 95.121094 C 8.695312 95.703125 7.996094 96.371094 7.371094 97.117188 C 6.75 97.863281 6.21875 98.671875 5.785156 99.539062 C 5.351562 100.410156 5.019531 101.320312 4.796875 102.265625 C 4.574219 103.210938 4.460938 104.171875 4.460938 105.144531 L 4.460938 234.617188 C 4.460938 235.574219 4.507812 236.53125 4.601562 237.484375 C 4.695312 238.4375 4.835938 239.382812 5.023438 240.320312 C 5.207031 241.261719 5.441406 242.1875 5.71875 243.105469 C 5.996094 244.019531 6.316406 244.921875 6.683594 245.804688 C 7.050781 246.691406 7.460938 247.554688 7.910156 248.398438 C 8.363281 249.242188 8.851562 250.0625 9.386719 250.859375 C 9.917969 251.65625 10.488281 252.425781 11.09375 253.164062 C 11.703125 253.902344 12.34375 254.613281 13.019531 255.289062 C 13.699219 255.96875 14.40625 256.609375 15.144531 257.214844 C 15.886719 257.824219 16.65625 258.394531 17.449219 258.925781 C 18.246094 259.457031 19.066406 259.949219 19.910156 260.398438 C 20.753906 260.851562 21.621094 261.261719 22.503906 261.625 C 23.390625 261.992188 24.289062 262.3125 25.207031 262.59375 C 26.121094 262.871094 27.050781 263.101562 27.988281 263.289062 C 28.929688 263.476562 29.875 263.617188 30.828125 263.707031 C 31.78125 263.800781 32.734375 263.847656 33.691406 263.847656 L 92.152344 263.851562 C 92.976562 263.851562 93.789062 263.773438 94.597656 263.613281 C 95.40625 263.453125 96.1875 263.214844 96.949219 262.898438 C 97.707031 262.585938 98.429688 262.199219 99.113281 261.742188 C 99.796875 261.285156 100.429688 260.765625 101.011719 260.183594 C 101.59375 259.601562 102.113281 258.96875 102.570312 258.285156 C 103.027344 257.601562 103.414062 256.878906 103.726562 256.121094 C 104.042969 255.359375 104.28125 254.578125 104.441406 253.769531 C 104.601562 252.960938 104.679688 252.148438 104.679688 251.324219 L 104.679688 184.5 L 163.140625 184.5 L 163.140625 251.320312 C 163.140625 258.238281 168.753906 263.847656 175.671875 263.847656 C 182.585938 263.847656 188.199219 258.238281 188.199219 251.320312 L 188.199219 171.972656 C 188.199219 171.148438 188.117188 170.335938 187.957031 169.527344 C 187.796875 168.722656 187.558594 167.9375 187.242188 167.179688 C 186.929688 166.417969 186.542969 165.695312 186.085938 165.011719 C 185.628906 164.328125 185.109375 163.695312 184.527344 163.113281 C 183.945312 162.53125 183.3125 162.011719 182.628906 161.554688 C 181.945312 161.097656 181.222656 160.714844 180.464844 160.398438 C 179.703125 160.082031 178.921875 159.847656 178.113281 159.6875 C 177.308594 159.523438 176.492188 159.445312 175.671875 159.445312 L 92.152344 159.445312 C 91.332031 159.445312 90.515625 159.523438 89.710938 159.6875 C 88.902344 159.847656 88.121094 160.082031 87.359375 160.398438 C 86.597656 160.714844 85.878906 161.097656 85.195312 161.554688 C 84.511719 162.011719 83.878906 162.53125 83.296875 163.113281 C 82.714844 163.695312 82.195312 164.328125 81.738281 165.011719 C 81.28125 165.695312 80.894531 166.417969 80.578125 167.179688 C 80.265625 167.9375 80.027344 168.722656 79.867188 169.527344 C 79.707031 170.335938 79.625 171.148438 79.625 171.972656 L 79.625 238.792969 L 33.691406 238.792969 C 33.417969 238.792969 33.144531 238.765625 32.878906 238.714844 C 32.609375 238.660156 32.347656 238.582031 32.09375 238.476562 C 31.839844 238.371094 31.601562 238.242188 31.371094 238.089844 C 31.144531 237.9375 30.933594 237.765625 30.738281 237.570312 C 30.546875 237.378906 30.371094 237.167969 30.21875 236.9375 C 30.066406 236.710938 29.9375 236.46875 29.835938 236.214844 C 29.730469 235.960938 29.648438 235.703125 29.597656 235.433594 C 29.542969 235.164062 29.515625 234.890625 29.515625 234.617188 L 29.515625 111.40625 L 133.910156 33.105469 L 238.308594 111.410156 L 238.308594 234.617188 C 238.308594 234.890625 238.28125 235.164062 238.226562 235.433594 C 238.175781 235.703125 238.09375 235.964844 237.992188 236.21875 C 237.886719 236.46875 237.757812 236.710938 237.605469 236.9375 C 237.453125 237.167969 237.28125 237.378906 237.085938 237.570312 C 236.890625 237.765625 236.679688 237.9375 236.453125 238.089844 C 236.222656 238.242188 235.984375 238.371094 235.730469 238.476562 C 235.476562 238.582031 235.214844 238.660156 234.945312 238.714844 C 234.675781 238.769531 234.40625 238.792969 234.132812 238.792969 L 225.78125 238.792969 C 224.964844 238.808594 224.164062 238.902344 223.367188 239.074219 C 222.574219 239.246094 221.800781 239.492188 221.054688 239.8125 C 220.308594 240.132812 219.597656 240.523438 218.929688 240.984375 C 218.257812 241.445312 217.636719 241.964844 217.066406 242.542969 C 216.496094 243.125 215.988281 243.753906 215.542969 244.433594 C 215.09375 245.113281 214.71875 245.828125 214.410156 246.582031 C 214.101562 247.332031 213.871094 248.109375 213.710938 248.90625 C 213.554688 249.703125 213.476562 250.511719 213.476562 251.324219 C 213.476562 252.136719 213.554688 252.941406 213.710938 253.738281 C 213.871094 254.539062 214.101562 255.3125 214.410156 256.066406 C 214.71875 256.820312 215.09375 257.535156 215.542969 258.214844 C 215.988281 258.894531 216.496094 259.523438 217.066406 260.101562 C 217.636719 260.683594 218.257812 261.203125 218.929688 261.664062 C 219.597656 262.121094 220.308594 262.511719 221.054688 262.835938 C 221.800781 263.15625 222.574219 263.402344 223.367188 263.574219 C 224.164062 263.746094 224.964844 263.839844 225.78125 263.851562 Z M 225.78125 263.847656 " fill-opacity="1" fill-rule="evenodd"/><g fill="#000000" fill-opacity="1"><g transform="translate(2.90572, 334.877237)"><g><path d="M 43.390625 -18.140625 C 43.859375 -17.210938 43.628906 -16.5625 42.703125 -16.1875 C 39.535156 -14.601562 36.625 -13.484375 33.96875 -12.828125 C 31.320312 -12.179688 28.882812 -11.859375 26.65625 -11.859375 C 25.070312 -11.859375 23.601562 -12 22.25 -12.28125 C 20.90625 -12.5625 19.675781 -12.929688 18.5625 -13.390625 C 18.5625 -13.296875 18.5625 -13.203125 18.5625 -13.109375 C 18.5625 -13.015625 18.5625 -12.925781 18.5625 -12.84375 C 17.90625 -8 17.203125 -4.785156 16.453125 -3.203125 C 15.710938 -1.628906 15.019531 -0.609375 14.375 -0.140625 C 13.90625 0.234375 13.394531 0.421875 12.84375 0.421875 C 12.5625 0.421875 12.328125 0.375 12.140625 0.28125 C 11.023438 0 10.253906 -0.859375 9.828125 -2.296875 C 9.410156 -3.742188 9.019531 -5.488281 8.65625 -7.53125 C 8.5625 -8.28125 8.421875 -9.117188 8.234375 -10.046875 C 8.046875 -10.972656 7.859375 -11.71875 7.671875 -12.28125 C 7.484375 -12 7.296875 -11.648438 7.109375 -11.234375 C 6.929688 -10.816406 6.75 -10.46875 6.5625 -10.1875 C 6 -9.070312 5.414062 -8.046875 4.8125 -7.109375 C 4.207031 -6.179688 3.488281 -5.578125 2.65625 -5.296875 C 1.625 -4.929688 0.738281 -5.117188 0 -5.859375 C -0.832031 -6.691406 -1.296875 -8.082031 -1.390625 -10.03125 C -1.484375 -11.988281 -1.390625 -13.898438 -1.109375 -15.765625 C -0.835938 -17.628906 -0.609375 -18.882812 -0.421875 -19.53125 C -0.046875 -20.457031 0.601562 -20.738281 1.53125 -20.375 C 2.46875 -20 2.75 -19.347656 2.375 -18.421875 C 2.1875 -17.859375 2.019531 -16.878906 1.875 -15.484375 C 1.738281 -14.085938 1.671875 -12.691406 1.671875 -11.296875 C 1.671875 -9.898438 1.765625 -8.925781 1.953125 -8.375 C 2.234375 -8.65625 2.554688 -9.117188 2.921875 -9.765625 C 3.296875 -10.421875 3.578125 -10.976562 3.765625 -11.4375 C 4.421875 -12.644531 5.070312 -13.710938 5.71875 -14.640625 C 6.375 -15.578125 7.210938 -15.953125 8.234375 -15.765625 C 9.347656 -15.484375 10.113281 -14.617188 10.53125 -13.171875 C 10.945312 -11.734375 11.34375 -10.039062 11.71875 -8.09375 C 11.8125 -7.257812 11.972656 -6.304688 12.203125 -5.234375 C 12.441406 -4.160156 12.65625 -3.347656 12.84375 -2.796875 C 13.113281 -3.160156 13.503906 -4.039062 14.015625 -5.4375 C 14.535156 -6.832031 15.070312 -9.4375 15.625 -13.25 C 15.71875 -13.90625 15.71875 -14.554688 15.625 -15.203125 C 14.695312 -16.046875 14 -16.835938 13.53125 -17.578125 C 13.070312 -18.421875 12.957031 -19.144531 13.1875 -19.75 C 13.414062 -20.351562 13.71875 -20.789062 14.09375 -21.0625 C 14.738281 -21.4375 15.390625 -21.4375 16.046875 -21.0625 C 16.046875 -21.0625 16.09375 -21.0625 16.1875 -21.0625 C 17.394531 -20.414062 18.1875 -19.023438 18.5625 -16.890625 C 18.832031 -16.703125 19.15625 -16.515625 19.53125 -16.328125 C 20.644531 -15.765625 22.15625 -15.320312 24.0625 -15 C 25.96875 -14.675781 28.363281 -14.742188 31.25 -15.203125 C 34.132812 -15.671875 37.484375 -16.882812 41.296875 -18.84375 C 42.234375 -19.300781 42.929688 -19.066406 43.390625 -18.140625 Z M 43.390625 -18.140625 "/></g></g></g><g fill="#000000" fill-opacity="1"><g transform="translate(44.903701, 334.877237)"><g><path d="M 31.390625 -18.5625 C 32.140625 -17.8125 32.140625 -17.066406 31.390625 -16.328125 C 19.765625 -5.066406 11.160156 0.5625 5.578125 0.5625 C 4.273438 0.5625 3.160156 0.28125 2.234375 -0.28125 C 0.648438 -1.113281 -0.414062 -2.414062 -0.96875 -4.1875 C -1.53125 -5.957031 -1.8125 -7.816406 -1.8125 -9.765625 C -1.8125 -11.722656 -1.691406 -13.46875 -1.453125 -15 C -1.222656 -16.53125 -1.066406 -17.484375 -0.984375 -17.859375 C -0.703125 -18.785156 -0.09375 -19.15625 0.84375 -18.96875 C 1.863281 -18.695312 2.234375 -18.09375 1.953125 -17.15625 C 1.765625 -16.132812 1.578125 -14.625 1.390625 -12.625 C 1.203125 -10.625 1.25 -8.671875 1.53125 -6.765625 C 1.8125 -4.859375 2.554688 -3.582031 3.765625 -2.9375 C 4.515625 -2.46875 5.796875 -2.414062 7.609375 -2.78125 C 9.421875 -3.15625 12.070312 -4.503906 15.5625 -6.828125 C 19.050781 -9.160156 23.628906 -13.070312 29.296875 -18.5625 C 30.046875 -19.300781 30.742188 -19.300781 31.390625 -18.5625 Z M 1.25 -22.1875 C 0.882812 -22.1875 0.5625 -22.328125 0.28125 -22.609375 C 0.1875 -22.796875 0.113281 -23.070312 0.0625 -23.4375 C 0.0195312 -23.8125 0.234375 -24.460938 0.703125 -25.390625 C 0.890625 -25.859375 1.257812 -26.046875 1.8125 -25.953125 C 1.90625 -25.953125 1.953125 -25.953125 1.953125 -25.953125 C 2.609375 -26.046875 2.976562 -25.71875 3.0625 -24.96875 C 3.0625 -24.695312 2.992188 -24.1875 2.859375 -23.4375 C 2.722656 -22.695312 2.28125 -22.28125 1.53125 -22.1875 C 1.4375 -22.1875 1.34375 -22.1875 1.25 -22.1875 Z M 1.25 -22.1875 "/></g></g></g><g fill="#000000" fill-opacity="1"><g transform="translate(74.902262, 334.877237)"><g><path d="M 17.15625 -20.09375 C 17.8125 -19.90625 18.046875 -19.488281 17.859375 -18.84375 C 17.671875 -18.28125 17.253906 -18.09375 16.609375 -18.28125 C 14.929688 -18.738281 13.253906 -18.273438 11.578125 -16.890625 C 10.835938 -16.234375 10.164062 -15.507812 9.5625 -14.71875 C 8.957031 -13.925781 8.375 -13.113281 7.8125 -12.28125 C 6.789062 -10.601562 5.859375 -8.742188 5.015625 -6.703125 C 4.085938 -4.742188 3.347656 -2.835938 2.796875 -0.984375 C 2.796875 -0.890625 2.703125 -0.75 2.515625 -0.5625 C 2.515625 -0.46875 2.515625 -0.421875 2.515625 -0.421875 C 2.046875 0.140625 1.488281 0.328125 0.84375 0.140625 C 0.1875 -0.140625 -0.140625 -0.601562 -0.140625 -1.25 C -0.703125 -3.394531 -0.703125 -9.628906 -0.140625 -19.953125 C -0.140625 -20.972656 0.367188 -21.4375 1.390625 -21.34375 C 2.421875 -21.34375 2.890625 -20.832031 2.796875 -19.8125 C 2.609375 -15.4375 2.515625 -11.484375 2.515625 -7.953125 C 3.535156 -10.085938 4.601562 -11.992188 5.71875 -13.671875 C 6.375 -14.515625 7.050781 -15.375 7.75 -16.25 C 8.445312 -17.132812 9.257812 -17.90625 10.1875 -18.5625 C 11.300781 -19.394531 12.367188 -19.953125 13.390625 -20.234375 C 14.691406 -20.609375 15.945312 -20.5625 17.15625 -20.09375 Z M 17.15625 -20.09375 "/></g></g></g><g fill="#000000" fill-opacity="1"><g transform="translate(98.622057, 334.877237)"><g><path d="M 29.015625 -18.5625 C 29.765625 -17.90625 29.8125 -17.207031 29.15625 -16.46875 C 23.582031 -10.050781 18.910156 -5.703125 15.140625 -3.421875 C 11.367188 -1.140625 8.273438 0 5.859375 0 C 4.554688 0 3.394531 -0.234375 2.375 -0.703125 C 0.132812 -1.816406 -1.351562 -3.601562 -2.09375 -6.0625 C -2.832031 -8.53125 -2.972656 -10.878906 -2.515625 -13.109375 C -1.859375 -17.296875 -0.554688 -20.039062 1.390625 -21.34375 C 2.234375 -21.8125 2.976562 -22.046875 3.625 -22.046875 C 4.28125 -22.046875 4.703125 -22.046875 4.890625 -22.046875 C 6.554688 -21.671875 7.71875 -20.738281 8.375 -19.25 C 8.925781 -17.757812 8.925781 -16.457031 8.375 -15.34375 C 7.257812 -13.394531 5.929688 -11.90625 4.390625 -10.875 C 2.859375 -9.851562 1.535156 -9.113281 0.421875 -8.65625 C 0.609375 -7.53125 0.957031 -6.503906 1.46875 -5.578125 C 1.976562 -4.648438 2.695312 -3.953125 3.625 -3.484375 C 4.375 -3.117188 5.65625 -3.050781 7.46875 -3.28125 C 9.28125 -3.507812 11.765625 -4.71875 14.921875 -6.90625 C 18.085938 -9.09375 22.046875 -12.929688 26.796875 -18.421875 C 27.441406 -19.160156 28.179688 -19.207031 29.015625 -18.5625 Z M 0.421875 -12.5625 C 0.328125 -12.375 0.28125 -12.140625 0.28125 -11.859375 C 2.695312 -13.066406 4.507812 -14.695312 5.71875 -16.75 C 5.8125 -17.019531 5.765625 -17.4375 5.578125 -18 C 5.296875 -18.5625 4.832031 -18.929688 4.1875 -19.109375 C 4.1875 -19.109375 4.140625 -19.109375 4.046875 -19.109375 C 3.765625 -19.109375 3.4375 -19.019531 3.0625 -18.84375 C 2.789062 -18.5625 2.375 -17.976562 1.8125 -17.09375 C 1.257812 -16.207031 0.796875 -14.695312 0.421875 -12.5625 Z M 0.421875 -12.5625 "/></g></g></g><g fill="#000000" fill-opacity="1"><g transform="translate(126.248639, 334.877237)"><g/></g></g><g fill="#000000" fill-opacity="1"><g transform="translate(152.758992, 334.877237)"><g><path d="M 31.25 -18.421875 C 32.1875 -18.609375 32.742188 -18.1875 32.921875 -17.15625 C 33.015625 -16.132812 32.597656 -15.578125 31.671875 -15.484375 C 27.023438 -14.835938 23.050781 -13.976562 19.75 -12.90625 C 16.445312 -11.832031 13.722656 -10.644531 11.578125 -9.34375 C 11.953125 -8.039062 12.046875 -6.785156 11.859375 -5.578125 C 11.578125 -3.898438 10.851562 -2.523438 9.6875 -1.453125 C 8.53125 -0.390625 7.066406 0.140625 5.296875 0.140625 C 5.203125 0.140625 5.109375 0.140625 5.015625 0.140625 C 3.441406 0.046875 2.609375 -0.882812 2.515625 -2.65625 C 2.421875 -3.582031 2.789062 -4.742188 3.625 -6.140625 C 4.46875 -7.535156 5.863281 -8.976562 7.8125 -10.46875 C 7.34375 -11.207031 6.664062 -11.878906 5.78125 -12.484375 C 4.90625 -13.085938 3.816406 -13.578125 2.515625 -13.953125 C 2.140625 -14.046875 1.554688 -14.273438 0.765625 -14.640625 C -0.0234375 -15.015625 -0.515625 -15.625 -0.703125 -16.46875 C -0.796875 -16.832031 -0.796875 -17.269531 -0.703125 -17.78125 C -0.609375 -18.300781 -0.28125 -18.835938 0.28125 -19.390625 C 1.019531 -20.140625 2.085938 -20.816406 3.484375 -21.421875 C 4.878906 -22.023438 6.226562 -22.488281 7.53125 -22.8125 C 8.832031 -23.132812 9.859375 -23.160156 10.609375 -22.890625 C 11.535156 -22.609375 11.859375 -22 11.578125 -21.0625 C 11.296875 -20.132812 10.691406 -19.8125 9.765625 -20.09375 C 9.296875 -20.09375 8.550781 -19.953125 7.53125 -19.671875 C 6.507812 -19.390625 5.488281 -19.015625 4.46875 -18.546875 C 3.445312 -18.085938 2.75 -17.625 2.375 -17.15625 C 2.65625 -17.0625 2.976562 -16.972656 3.34375 -16.890625 C 4.925781 -16.421875 6.296875 -15.765625 7.453125 -14.921875 C 8.617188 -14.085938 9.578125 -13.113281 10.328125 -12 C 12.554688 -13.394531 15.390625 -14.648438 18.828125 -15.765625 C 22.273438 -16.878906 26.414062 -17.765625 31.25 -18.421875 Z M 8.9375 -6.140625 C 8.9375 -6.515625 8.9375 -6.976562 8.9375 -7.53125 C 7.71875 -6.507812 6.785156 -5.535156 6.140625 -4.609375 C 5.765625 -3.953125 5.53125 -3.394531 5.4375 -2.9375 C 6.550781 -2.9375 7.363281 -3.257812 7.875 -3.90625 C 8.394531 -4.5625 8.75 -5.304688 8.9375 -6.140625 Z M 8.9375 -6.140625 "/></g></g></g><g fill="#000000" fill-opacity="1"><g transform="translate(183.734246, 334.877237)"><g><path d="M 43.109375 -49.109375 C 43.765625 -48.273438 43.675781 -47.53125 42.84375 -46.875 C 42.09375 -46.320312 41.394531 -46.414062 40.75 -47.15625 C 40.09375 -47.625 38.066406 -47.878906 34.671875 -47.921875 C 31.273438 -47.972656 26.898438 -47.878906 21.546875 -47.640625 C 16.203125 -47.410156 10.320312 -47.066406 3.90625 -46.609375 C 3.625 -39.628906 3.34375 -32.625 3.0625 -25.59375 C 2.789062 -18.570312 2.609375 -12.0625 2.515625 -6.0625 C 2.421875 -0.0625 2.441406 4.910156 2.578125 8.859375 C 2.722656 12.816406 3.023438 15.257812 3.484375 16.1875 C 4.140625 16.65625 4.28125 17.257812 3.90625 18 C 3.625 18.5625 3.160156 18.84375 2.515625 18.84375 C 2.234375 18.84375 2 18.75 1.8125 18.5625 C 1.53125 18.46875 1.25 18.207031 0.96875 17.78125 C 0.695312 17.363281 0.421875 16.410156 0.140625 14.921875 C -0.140625 13.441406 -0.328125 11.117188 -0.421875 7.953125 C -0.515625 4.785156 -0.535156 0.414062 -0.484375 -5.15625 C -0.441406 -10.738281 -0.28125 -17.859375 0 -26.515625 C 0.1875 -29.953125 0.347656 -33.367188 0.484375 -36.765625 C 0.628906 -40.160156 0.75 -43.394531 0.84375 -46.46875 C -7.25 -45.8125 -15.4375 -45.113281 -23.71875 -44.375 C -23.8125 -44.28125 -23.859375 -44.234375 -23.859375 -44.234375 C -24.785156 -44.234375 -25.296875 -44.695312 -25.390625 -45.625 C -25.484375 -46.644531 -25.019531 -47.203125 -24 -47.296875 C -24 -47.296875 -22.832031 -47.410156 -20.5 -47.640625 C -18.175781 -47.878906 -15.109375 -48.160156 -11.296875 -48.484375 C -7.484375 -48.804688 -3.347656 -49.109375 1.109375 -49.390625 C 1.296875 -54.972656 1.503906 -59.597656 1.734375 -63.265625 C 1.972656 -66.941406 2.09375 -68.78125 2.09375 -68.78125 C 2.09375 -68.96875 2.140625 -69.15625 2.234375 -69.34375 C 2.609375 -70.28125 3.050781 -70.816406 3.5625 -70.953125 C 4.070312 -71.085938 4.46875 -71.109375 4.75 -71.015625 C 5.113281 -70.921875 5.4375 -70.710938 5.71875 -70.390625 C 6 -70.066406 6.1875 -69.273438 6.28125 -68.015625 C 6.375 -66.765625 6.300781 -64.695312 6.0625 -61.8125 C 5.832031 -58.925781 5.394531 -54.878906 4.75 -49.671875 C 5.769531 -49.765625 6.742188 -49.859375 7.671875 -49.953125 C 15.953125 -50.515625 22.441406 -50.835938 27.140625 -50.921875 C 31.835938 -51.015625 35.28125 -50.945312 37.46875 -50.71875 C 39.65625 -50.488281 41.097656 -50.234375 41.796875 -49.953125 C 42.492188 -49.671875 42.929688 -49.390625 43.109375 -49.109375 Z M 43.109375 -49.109375 "/></g></g></g><g fill="#000000" fill-opacity="1"><g transform="translate(198.803296, 334.877237)"><g><path d="M 33.90625 -18.703125 C 34.738281 -18.234375 34.925781 -17.535156 34.46875 -16.609375 C 34.1875 -16.234375 33.414062 -15.140625 32.15625 -13.328125 C 30.90625 -11.515625 29.328125 -9.5625 27.421875 -7.46875 C 25.515625 -5.375 23.46875 -3.535156 21.28125 -1.953125 C 19.09375 -0.367188 16.929688 0.421875 14.796875 0.421875 C 13.210938 0.421875 11.953125 -0.179688 11.015625 -1.390625 C 9.992188 -2.503906 9.367188 -3.945312 9.140625 -5.71875 C 8.910156 -7.488281 8.84375 -9.164062 8.9375 -10.75 C 7.351562 -8.695312 5.628906 -6.785156 3.765625 -5.015625 C 1.910156 -3.253906 0.191406 -2.375 -1.390625 -2.375 C -1.953125 -2.375 -2.46875 -2.515625 -2.9375 -2.796875 C -3.769531 -3.160156 -4.347656 -4.179688 -4.671875 -5.859375 C -4.992188 -7.535156 -4.367188 -10.375 -2.796875 -14.375 C -0.835938 -19.207031 1.582031 -21.71875 4.46875 -21.90625 C 5.863281 -22.09375 7.117188 -21.765625 8.234375 -20.921875 C 9.347656 -20.085938 10.226562 -19.226562 10.875 -18.34375 C 11.53125 -17.457031 11.953125 -16.925781 12.140625 -16.75 C 12.328125 -16.28125 12.328125 -15.8125 12.140625 -15.34375 C 12.234375 -15.070312 12.28125 -14.796875 12.28125 -14.515625 C 12 -12.929688 11.878906 -10.929688 11.921875 -8.515625 C 11.972656 -6.097656 12.414062 -4.375 13.25 -3.34375 C 13.625 -2.882812 14.140625 -2.65625 14.796875 -2.65625 C 16.273438 -2.65625 17.851562 -3.234375 19.53125 -4.390625 C 21.207031 -5.554688 22.859375 -7.019531 24.484375 -8.78125 C 26.109375 -10.550781 27.570312 -12.296875 28.875 -14.015625 C 30.1875 -15.742188 31.164062 -17.164062 31.8125 -18.28125 C 32.375 -19.113281 33.070312 -19.253906 33.90625 -18.703125 Z M -1.53125 -5.4375 C -1.25 -5.34375 -0.226562 -5.898438 1.53125 -7.109375 C 3.300781 -8.328125 5.769531 -11.304688 8.9375 -16.046875 C 8.5625 -16.609375 7.976562 -17.234375 7.1875 -17.921875 C 6.394531 -18.617188 5.628906 -18.96875 4.890625 -18.96875 C 4.796875 -18.96875 4.75 -18.96875 4.75 -18.96875 C 3.070312 -18.882812 1.488281 -16.929688 0 -13.109375 C -1.113281 -10.410156 -1.671875 -8.476562 -1.671875 -7.3125 C -1.671875 -6.15625 -1.625 -5.53125 -1.53125 -5.4375 Z M -1.53125 -5.4375 "/></g></g></g><g fill="#000000" fill-opacity="1"><g transform="translate(231.592415, 334.877237)"><g><path d="M 35.15625 -17.015625 C 35.53125 -16.085938 35.253906 -15.4375 34.328125 -15.0625 C 31.066406 -13.851562 27.851562 -12.222656 24.6875 -10.171875 C 21.53125 -8.128906 18.554688 -5.851562 15.765625 -3.34375 C 15.859375 0.5625 15.8125 4.695312 15.625 9.0625 C 15.4375 13.4375 15.015625 17.691406 14.359375 21.828125 C 13.710938 25.972656 12.757812 29.765625 11.5 33.203125 C 10.25 36.648438 8.554688 39.347656 6.421875 41.296875 C 4.097656 43.441406 1.445312 44.515625 -1.53125 44.515625 C -2.375 44.515625 -3.210938 44.421875 -4.046875 44.234375 C -8.234375 43.484375 -10.554688 40.878906 -11.015625 36.421875 C -11.296875 32.972656 -10.457031 28.875 -8.5 24.125 C -6.550781 19.382812 -3.738281 14.476562 -0.0625 9.40625 C 3.601562 4.34375 7.859375 -0.328125 12.703125 -4.609375 C 12.609375 -7.023438 12.515625 -9.28125 12.421875 -11.375 C 12.328125 -13.46875 12.1875 -15.210938 12 -16.609375 C 11.90625 -16.421875 11.765625 -16.046875 11.578125 -15.484375 C 10.179688 -11.765625 8.878906 -8.765625 7.671875 -6.484375 C 6.460938 -4.203125 5.066406 -3.0625 3.484375 -3.0625 C 3.203125 -3.0625 2.804688 -3.15625 2.296875 -3.34375 C 1.785156 -3.53125 1.347656 -4.046875 0.984375 -4.890625 C 0.328125 -6.003906 -0.046875 -7.695312 -0.140625 -9.96875 C -0.234375 -12.25 -0.140625 -14.410156 0.140625 -16.453125 C 0.421875 -18.503906 0.789062 -19.859375 1.25 -20.515625 C 1.90625 -21.347656 2.648438 -21.484375 3.484375 -20.921875 C 4.234375 -20.273438 4.328125 -19.582031 3.765625 -18.84375 C 3.390625 -18.1875 3.132812 -16.953125 3 -15.140625 C 2.863281 -13.328125 2.835938 -11.507812 2.921875 -9.6875 C 3.015625 -7.875 3.25 -6.691406 3.625 -6.140625 C 4.09375 -6.421875 4.675781 -7.210938 5.375 -8.515625 C 6.070312 -9.816406 6.722656 -11.234375 7.328125 -12.765625 C 7.929688 -14.296875 8.421875 -15.578125 8.796875 -16.609375 C 9.722656 -19.023438 10.394531 -20.628906 10.8125 -21.421875 C 11.226562 -22.210938 11.71875 -22.65625 12.28125 -22.75 C 12.46875 -22.75 12.65625 -22.75 12.84375 -22.75 C 12.925781 -22.75 12.96875 -22.75 12.96875 -22.75 C 14 -22.84375 14.5625 -22.421875 14.65625 -21.484375 C 14.65625 -21.109375 14.769531 -19.617188 15 -17.015625 C 15.226562 -14.410156 15.4375 -11.15625 15.625 -7.25 C 18.414062 -9.488281 21.300781 -11.535156 24.28125 -13.390625 C 27.257812 -15.253906 30.234375 -16.789062 33.203125 -18 C 34.140625 -18.375 34.789062 -18.046875 35.15625 -17.015625 Z M 4.328125 39.0625 C 6.742188 36.832031 8.554688 33.53125 9.765625 29.15625 C 10.972656 24.789062 11.785156 19.957031 12.203125 14.65625 C 12.628906 9.351562 12.796875 4.28125 12.703125 -0.5625 C 8.421875 3.53125 4.675781 7.878906 1.46875 12.484375 C -1.738281 17.085938 -4.179688 21.484375 -5.859375 25.671875 C -7.535156 29.859375 -8.234375 33.347656 -7.953125 36.140625 C -7.671875 39.117188 -6.179688 40.835938 -3.484375 41.296875 C -0.421875 41.859375 2.179688 41.113281 4.328125 39.0625 Z M 4.328125 39.0625 "/></g></g></g></svg>